<svg xmlns="http://www.w3.org/2000/svg" viewBox="0 0 640 450"><defs><linearGradient id="bg" x2="1" y2="1"><stop stop-color="#14262f"/><stop offset="1" stop-color="#0a1117"/></linearGradient><linearGradient id="light" x2="0" y2="1"><stop stop-color="#e8bb68" stop-opacity=".25"/><stop offset="1" stop-color="#e8bb68" stop-opacity="0"/></linearGradient></defs><rect width="640" height="450" fill="url(#bg)"/><g stroke="#e8bb68" stroke-opacity=".1"><path d="M0 90H640M0 180H640M0 270H640M0 360H640M128 0V450M256 0V450M384 0V450M512 0V450"/></g><path d="M90 60L220 330L295 60M550 60L420 330L345 60" fill="url(#light)"/><rect x="135" y="180" width="370" height="150" rx="8" fill="#16252b" stroke="#e8bb68" stroke-opacity=".5"/><path d="M145 332H495L555 380H85Z" fill="#28343a"/><rect x="215" y="220" width="210" height="70" rx="4" fill="#e8bb68" fill-opacity=".15"/><path d="M252 252H388M275 270H365" stroke="#e8bb68" stroke-width="5"/><g fill="#e8bb68" opacity=".55"><circle cx="185" cy="365" r="12"/><circle cx="230" cy="372" r="11"/><circle cx="275" cy="365" r="12"/><circle cx="320" cy="376" r="12"/><circle cx="365" cy="365" r="12"/><circle cx="410" cy="372" r="11"/><circle cx="455" cy="365" r="12"/></g><rect x="28" y="28" width="584" height="394" rx="8" fill="none" stroke="#e8bb68" stroke-opacity=".3"/><path d="M48 88V48H88M552 48H592V88M48 362V402H88M552 402H592V362" stroke="#e8bb68" stroke-width="3" fill="none"/></svg>